<svg width="23" height="23" viewBox="0 0 23 23" fill="none" xmlns="http://www.w3.org/2000/svg">
<path d="M0.585786 19.5858C-0.195262 20.3668 -0.195262 21.6332 0.585786 22.4142C1.36684 23.1953 2.63316 23.1953 3.41421 22.4142L0.585786 19.5858ZM23 2C23 0.895429 22.1046 -1.81001e-06 21 -9.67075e-07L3 -1.38854e-06C1.89543 -1.38854e-06 1 0.895429 1 2C1 3.10457 1.89543 4 3 4L19 4L19 20C19 21.1046 19.8954 22 21 22C22.1046 22 23 21.1046 23 20L23 2ZM3.41421 22.4142L22.4142 3.41421L19.5858 0.585785L0.585786 19.5858L3.41421 22.4142Z" fill="white"/>
</svg>
